# xmcd CD database file generated by OrangeCD 6.1
#
# Track frame offsets:
#	150
#	16268
#	30275
#	43720
#	64846
#	78829
#	91654
#	104181
#	118217
#	134100
#	147827
#	162886
#	182889
#	204904
#	220818
#
# Disc length: 3177 seconds
#
# Revision: 0
# Processed by: cddbd v1.5.2PL0 Copyright (c) Steve Scherf et al.
# Submitted via: OrangeCD 6.1
#
DISCID=d00c670f
DTITLE=Scooter Lee - Go To The Rock
DYEAR=2005
DGENRE=
TTITLE0=Put The Western
TTITLE1=Doing The Bossa Nova
TTITLE2=I Go To The Rock
TTITLE3=Oh Happy Days
TTITLE4=Swing Low Sweet Chariot
TTITLE5=Something Stupid
TTITLE6=Kiss Me Once
TTITLE7=Who Did You Darling
TTITLE8=Don't Walk Away
TTITLE9=Track Speak To The Sky
TTITLE10=Operator
TTITLE11=At Last
TTITLE12=Over The Rainbow
TTITLE13=Be Young Be Foolish
TTITLE14=The Hustle
EXTD=
EXTT0=
EXTT1=
EXTT2=
EXTT3=
EXTT4=
EXTT5=
EXTT6=
EXTT7=
EXTT8=
EXTT9=
EXTT10=
EXTT11=
EXTT12=
EXTT13=
EXTT14=
PLAYORDER=
